<?xml version="1.0" encoding="UTF-8"?><svg id="Logotipo_positivo" xmlns="http://www.w3.org/2000/svg" viewBox="0 0 256 51"><defs><style>.cls-1{fill:#ec0000;}.cls-2{fill:#080808;}.cls-3{fill:#2167ae;fill-rule:evenodd;}</style></defs><g><path class="cls-1" d="M145.05,14.73c-.03-.7-.22-1.39-.59-2.01l-3.18-5.5c-.24-.42-.41-.87-.5-1.33l-.13,.23c-.79,1.36-.79,3.04,0,4.4l2.54,4.4c.79,1.36,.79,3.04,0,4.4l-.13,.23c-.09-.46-.26-.91-.5-1.33l-2.33-4.03-1.49-2.57c-.24-.42-.41-.87-.5-1.33l-.13,.23c-.78,1.36-.79,3.03,0,4.39h0l2.55,4.42c.79,1.36,.79,3.04,0,4.4l-.13,.23c-.09-.46-.26-.91-.5-1.33l-3.18-5.5c-.43-.74-.62-1.57-.59-2.39-3.4,.89-5.75,2.78-5.75,4.96,0,3.04,4.54,5.5,10.15,5.5s10.15-2.46,10.15-5.5c0-2.18-2.35-4.07-5.75-4.96Zm9.58,9.4c.04-.78,.15-1.32,.36-1.92,1.07,.5,2.44,.74,3.49,.74,1.77,0,2.76-.57,2.76-1.7s-.72-1.62-2.52-2.4l-.97-.42c-1.79-.78-3.01-1.79-3.01-3.81,0-2.17,1.51-3.56,4.59-3.56,1.24,0,2.4,.17,3.49,.55-.06,.76-.19,1.35-.38,1.91-1.03-.38-2.25-.55-3.13-.55-1.66,0-2.42,.65-2.42,1.66s.74,1.56,2.08,2.13l1.03,.44c2.42,1.03,3.43,2.12,3.43,3.96,0,2.19-1.66,3.7-4.9,3.7-1.56,0-2.84-.23-3.91-.72Zm19.04-9.11v9.53h-1.92l-.11-1.14c-.53,.84-1.35,1.37-2.69,1.37-2.52,0-4.19-1.83-4.19-5.03s1.79-5.26,5.32-5.26c1.37,0,2.5,.15,3.6,.53Zm-2.1,7.36v-5.98c-.44-.08-.91-.11-1.51-.11-2.17,0-3.18,1.33-3.18,3.47,0,1.94,.78,3.32,2.65,3.32,.82,0,1.49-.27,2.04-.69Zm12.83-4.23v6.4h-2.1v-6.04c0-1.51-.5-2.23-2.59-2.23-.5,0-1.09,.06-1.66,.15v8.12h-2.1V15.01c1.33-.32,2.8-.53,3.81-.53,3.51,0,4.63,1.35,4.63,3.66Zm5.81,4.84c.61,0,1.18-.11,1.64-.29-.06,.57-.13,1.22-.25,1.77-.57,.23-1.18,.3-1.77,.3-2.04,0-3.34-.93-3.34-3.26V11.51c.65-.21,1.45-.3,2.1-.3v3.6h3.32c-.04,.65-.1,1.24-.19,1.79h-3.13v4.67c0,1.24,.61,1.72,1.62,1.72Zm11.25-7.97v9.53h-1.92l-.11-1.14c-.53,.84-1.35,1.37-2.69,1.37-2.52,0-4.19-1.83-4.19-5.03s1.79-5.26,5.32-5.26c1.37,0,2.5,.15,3.6,.53Zm-2.1,7.36v-5.98c-.44-.08-.91-.11-1.51-.11-2.17,0-3.18,1.33-3.18,3.47,0,1.94,.78,3.32,2.65,3.32,.82,0,1.49-.27,2.04-.69Zm12.83-4.23v6.4h-2.1v-6.04c0-1.51-.5-2.23-2.59-2.23-.5,0-1.09,.06-1.66,.15v8.12h-2.1V15.01c1.33-.32,2.8-.53,3.81-.53,3.51,0,4.63,1.35,4.63,3.66Zm10.64-6.94v13.34h-1.92l-.11-1.22c-.53,.9-1.35,1.45-2.73,1.45-2.52,0-4.19-1.83-4.19-5.03s1.79-5.26,5.32-5.26c.55,0,1.07,.06,1.56,.15v-3.14c.65-.23,1.39-.29,2.08-.29Zm-2.08,11.13v-5.87c-.55-.11-1.12-.19-1.68-.19-2.08,0-3.07,1.3-3.07,3.47,0,1.94,.78,3.32,2.65,3.32,.84,0,1.52-.29,2.1-.72Zm12.62-1.87h-6.69c.27,1.7,1.26,2.52,3.13,2.52,1.14,0,2.31-.25,3.35-.72-.08,.55-.19,1.28-.32,1.91-.95,.44-1.96,.61-3.09,.61-3.51,0-5.2-1.94-5.2-5.2,0-2.84,1.32-5.09,4.65-5.09,2.99,0,4.29,1.96,4.29,4.36,0,.59-.04,1.07-.11,1.62Zm-6.73-1.75h4.73c0-1.56-.84-2.48-2.29-2.48s-2.27,.86-2.44,2.48Zm14.07-4.15c0,.63-.08,1.39-.19,1.79-.5-.06-.99-.08-1.58-.08-.51,0-1.03,.04-1.54,.11v8.16h-2.1V15.01c.9-.3,2.4-.53,3.58-.53,.65,0,1.37,.02,1.83,.08Z"/><g id="Page-1"><g id="logo" transform="translate(0.000000, -0.000000)"><path id="Fill-1" class="cls-3" d="M28,5.89c-7.01,0-12.7,5.69-12.7,12.7,0,2.9,.97,5.57,2.6,7.7l10.56-13.87h-2.26c-1.2,0-2.33,.08-3.15,.24-.49,.1-.94,.27-1.29,.53-.42,.3-.95,.92-1.29,1.54-.04,.07-.1,.18-.17,.33l-.62-.14,1.03-3.98h13.23l-10.51,14.05c.68-.06,.96-.08,1.51-.08,.42,0,1.07,.03,1.94,.08l1.86,.11c.67,.04,1.24,.06,1.67,.06,.96,0,1.59-.07,2.21-.27,.48-.15,.94-.37,1.36-.66,.74-.51,1.46-1.33,1.88-2.15,.04-.08,.11-.21,.19-.38l.56,.15c-.18,.69-.28,.96-.56,1.58-.56,1.26-1.2,2.11-2.08,2.75-.9,.67-1.9,.99-3.07,1.01h-.18c-.88,0-1.55-.07-3.64-.39-2.13-.33-3.21-.44-4.28-.44-.72,0-1.38,.05-2.07,.17-.91,.15-1.27,.25-2.1,.63,2.32,2.53,5.66,4.12,9.36,4.12,7.02,0,12.7-5.68,12.7-12.7s-5.69-12.7-12.7-12.7"/><path id="Fill-2" class="cls-3" d="M71.54,13.09c.08,.13,.14,.26,.18,.41,.08,.29,.1,.58,.1,1.25v4.53c0,.97-.03,1.54-.1,2.02-.05,.32-.16,.62-.31,.87-.29,.49-.84,.86-1.48,1.02-.26,.06-.55,.09-.86,.09-1.03,0-1.92-.38-2.35-1.01-.33-.49-.43-.95-.44-2.18v-4.57c-.01-.69,0-1.03,.02-1.38,.01-.21,.05-.39,.09-.54,.08-.28,.29-.64,.49-.86,.02-.02,.05-.06,.1-.1h-3.92c.24,.19,.32,.28,.44,.48,.08,.13,.14,.27,.17,.41,.05,.18,.08,.37,.08,.55,0,.12,0,.36,0,.74v4.1c0,1.26,.01,1.59,.05,2.1,.07,.86,.34,1.56,.84,2.19,.92,1.13,2.38,1.73,4.25,1.73,.9,0,1.76-.14,2.42-.38,.69-.26,1.34-.68,1.79-1.18,.56-.62,.88-1.38,.98-2.31,.05-.55,.08-1.19,.08-2.13v-4.24c0-.51,.02-.81,.09-1.08,.04-.17,.12-.34,.21-.48,.13-.21,.22-.3,.47-.49h-3.84c.23,.18,.31,.26,.44,.46h0Zm10.84,4.79c-.43,.25-.87,.39-1.52,.48-.25,.04-.45,.06-.63,.06-.06,0-.1,0-.2,0v-4.41c.15,0,.22,0,.31,0,.59,0,1.17,.07,1.62,.2,.3,.09,.58,.23,.81,.43,.41,.34,.63,.84,.63,1.47,0,.54-.16,1-.47,1.34-.15,.17-.34,.32-.56,.45h0Zm4.6,5.84c-.42-.4-.8-.78-1.36-1.38-.36-.38-.65-.7-.88-.97l-1.87-2.18c.23-.07,.32-.1,.53-.18,.6-.24,1.06-.5,1.48-.85,.48-.4,.78-.82,.95-1.36,.1-.3,.15-.6,.15-.92,0-.73-.27-1.39-.82-1.96-.5-.51-1.19-.89-1.96-1.07-.54-.13-1.1-.18-2.06-.21-.36,0-.73-.01-1.12-.01h-3.11c.21,.19,.29,.28,.41,.45,.09,.14,.16,.29,.21,.43,.08,.27,.12,.64,.12,1.27v7.82c0,.57-.04,.89-.14,1.15-.05,.14-.12,.26-.21,.38-.11,.14-.18,.21-.4,.42h3.83c-.18-.18-.23-.24-.33-.39-.09-.12-.16-.24-.21-.36-.11-.26-.15-.55-.16-1.1,0-.18,0-.38,0-.6v-2.67l2.24,2.64c.11,.12,.27,.32,.5,.58,.26,.29,.45,.5,.58,.64,.43,.44,.85,.76,1.25,.98,.34,.19,.67,.26,1.19,.28,.19,0,.4,0,.63,0h1.51c-.2-.16-.28-.22-.44-.36-.16-.14-.34-.3-.52-.47h0Zm30.8-8.88c0-.52,.05-.93,.14-1.26,.04-.15,.1-.3,.19-.44,.13-.21,.22-.3,.48-.5h-3.94c.23,.19,.31,.27,.44,.48,.09,.14,.15,.28,.2,.42,.09,.28,.13,.63,.13,1.25v2.9h-5.41v-2.18c0-.66,0-1.09,.04-1.41,.01-.2,.04-.37,.09-.52,.09-.26,.3-.61,.5-.81,.03-.03,.07-.07,.14-.13h-3.87c.23,.24,.29,.31,.4,.46,.08,.12,.15,.26,.2,.4,.11,.3,.12,.47,.14,1.26v7.27c0,.66,0,.96-.04,1.25-.02,.16-.06,.31-.12,.47-.1,.26-.24,.47-.46,.67-.03,.03-.07,.06-.14,.12h3.81c-.16-.17-.22-.24-.32-.39-.07-.11-.13-.24-.19-.37-.13-.31-.17-.53-.18-1.04,0-.25,0-.49,0-.71v-2.89h5.41v2.9c0,.64,0,.88-.05,1.22-.02,.18-.07,.35-.13,.51-.09,.22-.23,.43-.43,.63-.03,.03-.09,.08-.17,.15h3.85c-.16-.15-.22-.22-.33-.37-.09-.13-.17-.26-.22-.4-.12-.27-.15-.49-.16-1.07,0-.35,0-.55,0-.62v-7.26Zm-14.18,7.99c-.73,.3-1.39,.44-2.1,.44-1.25,0-2.32-.44-3.1-1.28-.78-.84-1.21-1.99-1.21-3.3s.39-2.41,1.09-3.22c.3-.35,.67-.65,1.1-.88,.68-.38,1.47-.57,2.33-.57,.74,0,1.45,.14,2.17,.43,.45,.18,.61,.27,.99,.54v-2.24c-.29-.09-.41-.12-.73-.2-.69-.15-1.36-.21-2.12-.21-1.29,0-2.41,.21-3.43,.63-.61,.25-1.17,.58-1.66,.97-1.49,1.18-2.29,2.9-2.29,4.87s.78,3.57,2.2,4.68c1.17,.91,2.69,1.38,4.5,1.38,1.13,0,2.19-.17,3.38-.54,.04-.01,.11-.03,.2-.06v-2.16c-.29,.19-.39,.25-.57,.35-.23,.13-.48,.26-.74,.36h0Zm-11.57-7.98c0-.8,.03-1.02,.13-1.34,.04-.13,.1-.25,.17-.37,.13-.2,.21-.29,.45-.49h-3.87c.26,.22,.33,.3,.45,.47,.08,.12,.15,.25,.19,.39,.09,.29,.12,.57,.12,1.28,0,.36,0,.6,0,.72v7.13c0,.42-.08,.86-.19,1.15-.05,.12-.11,.24-.19,.35-.09,.13-.16,.21-.37,.42h3.82c-.19-.16-.25-.23-.37-.42-.07-.11-.14-.23-.19-.36-.1-.27-.17-.66-.17-1.04v-7.87Zm-33.7,8.03c-.54,.09-1.14,.15-1.89,.17-.25,0-.57,0-.96,0h-1.85l7.31-10.42h-9.48l-1.16,2.54c.39-.2,.54-.27,.88-.41,.54-.21,1.13-.37,1.71-.47,.49-.09,.95-.13,1.7-.15,.33,0,.64,0,.94,0h1.4l-7.38,10.41h10.43l1.2-2.72c-.42,.24-.57,.32-.89,.46-.61,.27-1.27,.47-1.95,.59h0Z"/></g></g></g><g><path class="cls-2" d="M91.98,43.24c0,.4-.1,.74-.3,1.02-.2,.28-.47,.49-.83,.64-.36,.15-.77,.22-1.26,.22-.25,0-.5-.01-.72-.04s-.44-.06-.63-.11-.36-.1-.5-.17v-.75c.23,.1,.51,.18,.84,.26s.68,.12,1.04,.12c.34,0,.62-.05,.86-.14,.23-.09,.41-.22,.53-.39,.12-.17,.18-.37,.18-.61s-.05-.42-.15-.58-.27-.3-.5-.42c-.23-.13-.55-.26-.96-.41-.29-.1-.54-.21-.75-.33-.22-.12-.4-.26-.55-.41-.15-.15-.26-.33-.33-.53-.08-.2-.11-.43-.11-.7,0-.36,.09-.67,.27-.92s.44-.45,.76-.59c.32-.14,.7-.2,1.12-.2,.36,0,.69,.03,1,.1,.31,.07,.59,.16,.84,.27l-.24,.67c-.24-.1-.5-.19-.77-.25s-.55-.1-.84-.1-.53,.04-.73,.13c-.2,.08-.35,.2-.45,.36-.1,.15-.16,.34-.16,.55,0,.24,.05,.43,.15,.59,.1,.16,.26,.3,.48,.42,.22,.12,.51,.25,.87,.38,.4,.14,.73,.3,1.01,.46,.28,.16,.49,.36,.63,.59,.14,.23,.22,.53,.22,.88Z"/><path class="cls-2" d="M97.12,45.03h-3.75v-6.73h3.75v.69h-2.96v2.18h2.79v.68h-2.79v2.49h2.96v.69Z"/><path class="cls-2" d="M101.52,41.5h2.35v3.26c-.35,.12-.72,.21-1.09,.27s-.79,.09-1.25,.09c-.7,0-1.29-.14-1.77-.42-.48-.28-.84-.68-1.09-1.19-.25-.52-.37-1.13-.37-1.84s.14-1.3,.41-1.82,.67-.92,1.19-1.21c.52-.29,1.15-.43,1.88-.43,.37,0,.73,.03,1.07,.1,.34,.07,.65,.17,.94,.29l-.3,.68c-.25-.11-.52-.2-.82-.28-.3-.08-.61-.12-.93-.12-.55,0-1.02,.11-1.41,.34-.39,.23-.69,.55-.9,.96-.21,.41-.31,.91-.31,1.47s.09,1.05,.27,1.47c.18,.42,.46,.74,.85,.97s.88,.35,1.48,.35c.3,0,.56-.02,.78-.05,.22-.04,.42-.08,.59-.13v-2.06h-1.57v-.7Z"/><path class="cls-2" d="M110.66,38.3v4.35c0,.48-.1,.9-.29,1.27-.19,.37-.48,.66-.87,.88s-.87,.32-1.45,.32c-.83,0-1.46-.23-1.9-.68-.43-.45-.65-1.05-.65-1.81v-4.34h.79v4.36c0,.57,.15,1.01,.45,1.32,.3,.31,.75,.46,1.36,.46,.41,0,.75-.07,1.01-.22,.26-.15,.46-.36,.58-.63,.13-.27,.19-.58,.19-.93v-4.36h.78Z"/><path class="cls-2" d="M114.33,38.3c.55,0,1.01,.07,1.37,.2,.36,.14,.63,.34,.81,.62,.18,.28,.27,.64,.27,1.07,0,.36-.06,.65-.19,.89-.13,.24-.3,.43-.51,.58-.21,.15-.43,.26-.67,.34l1.85,3.02h-.91l-1.65-2.81h-1.4v2.81h-.78v-6.73h1.82Zm-.05,.68h-.99v2.58h1.07c.55,0,.95-.11,1.21-.34,.26-.22,.39-.55,.39-.99,0-.46-.14-.78-.41-.97s-.7-.29-1.27-.29Z"/><path class="cls-2" d="M124.2,41.65c0,.52-.07,.99-.2,1.42-.13,.42-.33,.79-.59,1.1-.26,.31-.58,.54-.96,.71-.38,.17-.83,.25-1.33,.25s-.98-.08-1.36-.25c-.39-.17-.71-.4-.97-.71-.26-.31-.45-.67-.58-1.1-.13-.43-.19-.9-.19-1.42,0-.69,.11-1.29,.34-1.81,.23-.52,.57-.92,1.03-1.21,.46-.29,1.04-.43,1.74-.43s1.23,.14,1.68,.43c.46,.29,.8,.69,1.04,1.2s.35,1.13,.35,1.83Zm-5.36,0c0,.57,.08,1.06,.24,1.48,.16,.42,.41,.74,.75,.97s.76,.34,1.28,.34,.95-.11,1.28-.34c.33-.23,.58-.55,.74-.97s.24-.91,.24-1.48c0-.87-.18-1.55-.55-2.04-.36-.49-.93-.73-1.7-.73-.52,0-.95,.11-1.29,.34-.34,.22-.59,.54-.75,.96-.16,.41-.25,.91-.25,1.48Z"/><path class="cls-2" d="M129.53,43.24c0,.4-.1,.74-.3,1.02-.2,.28-.47,.49-.83,.64-.36,.15-.77,.22-1.26,.22-.25,0-.5-.01-.72-.04s-.44-.06-.63-.11-.36-.1-.5-.17v-.75c.23,.1,.51,.18,.84,.26s.68,.12,1.04,.12c.34,0,.62-.05,.86-.14,.23-.09,.41-.22,.53-.39,.12-.17,.18-.37,.18-.61s-.05-.42-.15-.58-.27-.3-.5-.42c-.23-.13-.55-.26-.96-.41-.29-.1-.54-.21-.75-.33-.22-.12-.4-.26-.55-.41-.15-.15-.26-.33-.33-.53-.08-.2-.11-.43-.11-.7,0-.36,.09-.67,.27-.92s.44-.45,.76-.59c.32-.14,.7-.2,1.12-.2,.36,0,.69,.03,1,.1,.31,.07,.59,.16,.84,.27l-.24,.67c-.24-.1-.5-.19-.77-.25s-.55-.1-.84-.1-.53,.04-.73,.13c-.2,.08-.35,.2-.45,.36-.1,.15-.16,.34-.16,.55,0,.24,.05,.43,.15,.59,.1,.16,.26,.3,.48,.42,.22,.12,.51,.25,.87,.38,.4,.14,.73,.3,1.01,.46,.28,.16,.49,.36,.63,.59,.14,.23,.22,.53,.22,.88Z"/><path class="cls-2" d="M136.69,45.03l-2.26-5.96h-.04c.01,.13,.02,.28,.03,.46,0,.18,.02,.38,.02,.59s0,.43,0,.65v4.25h-.73v-6.73h1.16l2.13,5.6h.03l2.16-5.6h1.15v6.73h-.77v-4.31c0-.2,0-.4,0-.6s.01-.39,.02-.57c0-.18,.02-.34,.03-.47h-.04l-2.29,5.95h-.64Z"/><path class="cls-2" d="M146.01,45.03h-3.75v-6.73h3.75v.69h-2.96v2.18h2.79v.68h-2.79v2.49h2.96v.69Zm-.45-8.91v.09c-.06,.09-.15,.2-.25,.32s-.22,.25-.35,.39c-.13,.14-.26,.27-.39,.39-.13,.12-.25,.23-.36,.32h-.51v-.11c.1-.12,.21-.26,.32-.42,.12-.16,.23-.33,.34-.51,.11-.17,.2-.33,.28-.47h.93Z"/><path class="cls-2" d="M152.4,45.03h-.89l-1.82-2.96-1.85,2.96h-.83l2.24-3.51-2.08-3.22h.87l1.68,2.68,1.69-2.68h.83l-2.08,3.21,2.24,3.52Z"/><path class="cls-2" d="M153.58,45.03v-6.73h.78v6.73h-.78Z"/><path class="cls-2" d="M159.17,38.89c-.37,0-.7,.06-1,.19-.3,.13-.55,.31-.75,.55-.21,.24-.37,.53-.48,.87-.11,.34-.17,.72-.17,1.15,0,.56,.09,1.05,.26,1.47,.18,.42,.44,.74,.79,.96s.79,.34,1.32,.34c.3,0,.58-.03,.85-.08,.27-.05,.52-.11,.78-.19v.68c-.25,.09-.5,.16-.77,.2-.27,.04-.59,.07-.96,.07-.68,0-1.26-.14-1.71-.43-.46-.28-.8-.68-1.03-1.2-.23-.52-.34-1.13-.34-1.84,0-.51,.07-.97,.21-1.4,.14-.42,.35-.79,.63-1.09,.27-.31,.61-.54,1.01-.71,.4-.17,.86-.25,1.38-.25,.34,0,.67,.03,.98,.1,.32,.07,.6,.16,.86,.29l-.31,.66c-.21-.1-.45-.18-.71-.26-.26-.07-.53-.11-.83-.11Z"/><path class="cls-2" d="M167.88,41.65c0,.52-.07,.99-.2,1.42-.13,.42-.33,.79-.59,1.1-.26,.31-.58,.54-.96,.71-.38,.17-.83,.25-1.33,.25s-.98-.08-1.36-.25c-.39-.17-.71-.4-.97-.71-.26-.31-.45-.67-.58-1.1-.13-.43-.19-.9-.19-1.42,0-.69,.11-1.29,.34-1.81,.23-.52,.57-.92,1.03-1.21,.46-.29,1.04-.43,1.74-.43s1.23,.14,1.68,.43c.46,.29,.8,.69,1.04,1.2s.35,1.13,.35,1.83Zm-5.36,0c0,.57,.08,1.06,.24,1.48,.16,.42,.41,.74,.75,.97s.76,.34,1.28,.34,.95-.11,1.28-.34c.33-.23,.58-.55,.74-.97s.24-.91,.24-1.48c0-.87-.18-1.55-.55-2.04-.36-.49-.93-.73-1.7-.73-.52,0-.95,.11-1.29,.34-.34,.22-.59,.54-.75,.96-.16,.41-.25,.91-.25,1.48Z"/></g></svg>